<?xml version="1.0"?>
<svg xmlns="http://www.w3.org/2000/svg" xmlns:xlink="http://www.w3.org/1999/xlink" xmlns:svgjs="http://svgjs.com/svgjs" version="1.1" width="512" height="512" x="0" y="0" viewBox="0 0 64 64" style="enable-background:new 0 0 512 512" xml:space="preserve"><g><path xmlns="http://www.w3.org/2000/svg" d="m48 43v-2.695c-.736 1.047-1.648 1.959-2.695 2.695z" fill="#ffffff" data-original="#000000" style=""/><path xmlns="http://www.w3.org/2000/svg" d="m16 43h16.695c-2.834-1.992-4.695-5.28-4.695-9 0-6.065 4.935-11 11-11 3.72 0 7.008 1.861 9 4.695v-21.695c0-1.654-1.346-3-3-3h-30.026c.635.838 1.026 1.87 1.026 3zm8-30h6v6h2v-10h6v10h2v-14h6v16h-22zm-6-8h2v2h-2zm0 4h2v2h-2zm0 4h2v2h-2zm0 10h8v2h-8zm0 4h8v2h-8zm0 4h8v2h-8zm0 4h8v2h-8zm0 4h8v2h-8z" fill="#ffffff" data-original="#000000" style=""/><path xmlns="http://www.w3.org/2000/svg" d="m39 25c-4.962 0-9 4.038-9 9s4.038 9 9 9 9-4.038 9-9-4.038-9-9-9zm-6 10c-.552 0-1-.448-1-1s.448-1 1-1 1 .448 1 1-.448 1-1 1zm6-2c1.654 0 3 1.346 3 3v3h-2v2h-2v-2.184c-1.161-.414-2-1.514-2-2.816h2c0 .551.449 1 1 1h1v-1c0-.551-.449-1-1-1-1.654 0-3-1.346-3-3v-3h2v-2h2v2.184c1.161.414 2 1.514 2 2.816h-2c0-.551-.449-1-1-1h-1v1c0 .551.449 1 1 1zm6 2c-.552 0-1-.448-1-1s.448-1 1-1 1 .448 1 1-.448 1-1 1z" fill="#ffffff" data-original="#000000" style=""/><path xmlns="http://www.w3.org/2000/svg" d="m26 15h2v4h-2z" fill="#ffffff" data-original="#000000" style=""/><path xmlns="http://www.w3.org/2000/svg" d="m50 19h4v24h-4z" fill="#ffffff" data-original="#000000" style=""/><path xmlns="http://www.w3.org/2000/svg" d="m34 11h2v8h-2z" fill="#ffffff" data-original="#000000" style=""/><path xmlns="http://www.w3.org/2000/svg" d="m14 6c0-1.654-1.346-3-3-3s-3 1.346-3 3v3h6z" fill="#ffffff" data-original="#000000" style=""/><path xmlns="http://www.w3.org/2000/svg" d="m42 7h2v12h-2z" fill="#ffffff" data-original="#000000" style=""/><path xmlns="http://www.w3.org/2000/svg" d="m46 59h-28c-.551 0-1 .449-1 1s.449 1 1 1h28c.551 0 1-.449 1-1s-.449-1-1-1z" fill="#ffffff" data-original="#000000" style=""/><path xmlns="http://www.w3.org/2000/svg" d="m55 15h-5v2h4c1.103 0 2 .897 2 2v24c0 1.103-.897 2-2 2h-44c-1.103 0-2-.897-2-2v-24c0-1.103.897-2 2-2h4v-2h-5c-1.654 0-3 1.346-3 3v30c0 1.654 1.346 3 3 3h33.184c-.112-.314-.184-.648-.184-1 0-1.654 1.346-3 3-3h6c1.654 0 3 1.346 3 3 0 .352-.072.686-.184 1h1.184c1.654 0 3-1.346 3-3v-30c0-1.654-1.346-3-3-3zm-43 34h-2v-2h2zm4 0h-2v-2h2zm4 0h-2v-2h2z" fill="#ffffff" data-original="#000000" style=""/><path xmlns="http://www.w3.org/2000/svg" d="m10 19h4v24h-4z" fill="#ffffff" data-original="#000000" style=""/><path xmlns="http://www.w3.org/2000/svg" d="m51 49h-6c-.551 0-1 .449-1 1s.449 1 1 1h6c.551 0 1-.449 1-1s-.449-1-1-1z" fill="#ffffff" data-original="#000000" style=""/><path xmlns="http://www.w3.org/2000/svg" d="m25.618 53-2 4h16.764l-2-4z" fill="#ffffff" data-original="#000000" style=""/></g></svg>
