<?xml version="1.0"?>
<svg xmlns="http://www.w3.org/2000/svg" xmlns:xlink="http://www.w3.org/1999/xlink" xmlns:svgjs="http://svgjs.com/svgjs" version="1.1" width="512" height="512" x="0" y="0" viewBox="0 0 24 24" style="enable-background:new 0 0 512 512" xml:space="preserve"><g><path xmlns="http://www.w3.org/2000/svg" d="m3 11c-.256 0-.512-.098-.707-.293-.391-.391-.391-1.023 0-1.414l6.906-6.906c.391-.391 1.023-.391 1.414 0s.391 1.023 0 1.414l-6.906 6.906c-.195.195-.451.293-.707.293z" fill="#ffffff" data-original="#000000" style=""/><path xmlns="http://www.w3.org/2000/svg" d="m11.25 6c-.195 0-.387-.076-.53-.22l-3.5-3.5c-.215-.214-.279-.537-.163-.817s.39-.463.693-.463h3.5c.414 0 .75.336.75.75v3.5c0 .303-.183.577-.463.693-.093.038-.19.057-.287.057z" fill="#ffffff" data-original="#000000" style=""/><path xmlns="http://www.w3.org/2000/svg" d="m7 15.25v5.75h-6v-5.75c0-.69.56-1.25 1.25-1.25h3.5c.69 0 1.25.56 1.25 1.25z" fill="#ffffff" data-original="#000000" style=""/><path xmlns="http://www.w3.org/2000/svg" d="m15 11.25v9.75h-6v-9.75c0-.69.56-1.25 1.25-1.25h3.5c.69 0 1.25.56 1.25 1.25z" fill="#ffffff" data-original="#000000" style=""/><path xmlns="http://www.w3.org/2000/svg" d="m23 7.25v13.75h-6v-13.75c0-.69.56-1.25 1.25-1.25h3.5c.69 0 1.25.56 1.25 1.25z" fill="#ffffff" data-original="#000000" style=""/><path xmlns="http://www.w3.org/2000/svg" d="m23.25 24h-22.5c-.414 0-.75-.336-.75-.75s.336-.75.75-.75h22.5c.414 0 .75.336.75.75s-.336.75-.75.75z" fill="#ffffff" data-original="#000000" style=""/></g></svg>
